<svg xmlns="http://www.w3.org/2000/svg" width="21.235" height="21" viewBox="0 0 21.235 21">
  <defs>
    <style>
      .cls-1 {
        fill: #e9db0a;
        stroke: rgba(0,0,0,0);
        stroke-miterlimit: 10;
      }
    </style>
  </defs>
  <path id="Union_1" data-name="Union 1" class="cls-1" d="M105,10A9.994,9.994,0,0,1,115,0a9.892,9.892,0,0,1,5.466,1.627l-1.495,1.495A7.828,7.828,0,0,0,115,2.047a7.954,7.954,0,0,0-.194,15.905h.389a7.973,7.973,0,0,0,7.759-7.758l1.9-1.9A10.435,10.435,0,0,1,125,10a10,10,0,1,1-20,0Zm8.393,2.46-4.3-4,1.5-1.4,4.3,4,8.6-7.99L125,4.469l-8.6,7.991-1.506,1.4Z" transform="translate(-104.5 0.5)"/>
</svg>
