<svg id="Group_261" data-name="Group 261" xmlns="http://www.w3.org/2000/svg" width="27.348" height="28" viewBox="0 0 27.348 28">
  <defs>
    <style>
      .cls-1 {
        fill: #4386f7;
      }

      .cls-2 {
        fill: #ee4131;
      }

      .cls-3 {
        fill: #33a951;
      }

      .cls-4 {
        fill: #ffbe00;
      }
    </style>
  </defs>
  <g id="Group_257" data-name="Group 257">
    <path id="Path_4142" data-name="Path 4142" class="cls-1" d="M2126.785,1939.66s.185,1.958.185,2.606c0,.684-.185,2.724-.185,2.724s0,.006,0,.009a12.575,12.575,0,0,1-3.835,7.792l-4.518-3.4a8.535,8.535,0,0,0,.975-.75,6,6,0,0,0,1.863-3.64h-7.626v-5.34h13.143Z" transform="translate(-2099.622 -1928.217)"/>
    <path id="Path_4143" data-name="Path 4143" class="cls-2" d="M918.719,832.8l-4.02,3.957a8.215,8.215,0,0,0-5.25-2.1,8.526,8.526,0,0,0-8.052,5.727l-4.588-3.455a13.919,13.919,0,0,1,21.9-4.141Z" transform="translate(-895.328 -829.138)"/>
    <path id="Path_4144" data-name="Path 4144" class="cls-3" d="M916.766,2468.706l-.044.04a14.181,14.181,0,0,1-21.821-4.339l4.6-3.461a8.527,8.527,0,0,0,12.751,4.358Z" transform="translate(-893.438 -2444.13)"/>
    <path id="Path_4145" data-name="Path 4145" class="cls-4" d="M759.037,1594.66l-4.6,3.461a13.959,13.959,0,0,1,.02-12.481l4.588,3.454a8.57,8.57,0,0,0-.012,5.565Z" transform="translate(-752.978 -1577.844)"/>
  </g>
</svg>
