<svg xmlns="http://www.w3.org/2000/svg" width="64.121" height="52.756" viewBox="0 0 64.121 52.756">
  <defs>
    <style>
      .cls-1 {
        fill: #fff;
      }
    </style>
  </defs>
  <g id="Group_480" data-name="Group 480" transform="translate(-37.611 116.857)">
    <path id="Path_334" data-name="Path 334" class="cls-1" d="M97.385-116.857H41.958a4.3,4.3,0,0,0-4.347,4.227v39.366a4.3,4.3,0,0,0,4.347,4.226H97.385a4.3,4.3,0,0,0,4.347-4.226V-112.63A4.3,4.3,0,0,0,97.385-116.857ZM99.8-73.264a2.322,2.322,0,0,1-2.415,2.294H41.958a2.322,2.322,0,0,1-2.415-2.294V-112.63a2.322,2.322,0,0,1,2.415-2.3H97.385a2.322,2.322,0,0,1,2.415,2.3Z"/>
    <path id="Path_335" data-name="Path 335" class="cls-1" d="M88.722-66.032H50.616a.965.965,0,0,0-.966.965.966.966,0,0,0,.966.966H88.722a.966.966,0,0,0,.965-.966A.965.965,0,0,0,88.722-66.032Z"/>
    <path id="Path_336" data-name="Path 336" class="cls-1" d="M76.417-84.919c.006.017.024.025.03.042a.949.949,0,0,0,.307.425c.023.017.049.025.074.04a.866.866,0,0,0,.217.12.986.986,0,0,0,.287.044.965.965,0,0,0,.291-.046.917.917,0,0,0,.208-.116.811.811,0,0,0,.082-.045.941.941,0,0,0,.305-.421c.007-.018.026-.027.033-.046L83.123-100.4a.966.966,0,0,0-.63-1.205.962.962,0,0,0-1.206.629L77.329-88.4l-3.977-12.577a.958.958,0,0,0-1.2-.628.962.962,0,0,0-.625,1.207Z"/>
    <path id="Path_337" data-name="Path 337" class="cls-1" d="M57.134-99.73h3.923v14.52a.964.964,0,0,0,.962.962.963.963,0,0,0,.961-.962V-99.73H66.9a.962.962,0,0,0,.962-.962.963.963,0,0,0-.962-.962H57.134a.963.963,0,0,0-.962.962A.962.962,0,0,0,57.134-99.73Z"/>
    <path id="Path_338" data-name="Path 338" class="cls-1" d="M96.057-112.027H43.287a.953.953,0,0,0-.967.966v36.227a.952.952,0,0,0,.967.965h52.77a.952.952,0,0,0,.965-.965v-36.227A.953.953,0,0,0,96.057-112.027ZM95.09-75.8H44.252V-110.1H95.09Z"/>
  </g>
</svg>
