<svg xmlns="http://www.w3.org/2000/svg" width="41.485" height="59.049" viewBox="0 0 41.485 59.049">
  <defs>
    <style>
      .cls-1 {
        fill: #fff;
      }
    </style>
  </defs>
  <g id="Group_478" data-name="Group 478" transform="translate(158.803 120.004)">
    <path id="Path_324" data-name="Path 324" class="cls-1" d="M-126.012-116.14a1.146,1.146,0,0,0-1.57.242,1.124,1.124,0,0,0,.242,1.569,18.712,18.712,0,0,1,7.728,14.974,18.456,18.456,0,0,1-5.555,13.163A12.387,12.387,0,0,0-128.91-77.5v.6a2.55,2.55,0,0,1-2.536,2.536h-13.283a2.476,2.476,0,0,1-2.536-2.536v-.241a12.9,12.9,0,0,0-3.864-9.177,18.306,18.306,0,0,1-5.314-14.612,18.409,18.409,0,0,1,17.268-16.784h2.054a1.115,1.115,0,0,0,1.207-1.087A1.192,1.192,0,0,0-137-120h-2.295a20.836,20.836,0,0,0-19.442,18.838,21.08,21.08,0,0,0,5.918,16.423,10.762,10.762,0,0,1,3.381,7.607v.241a4.56,4.56,0,0,0,1.569,3.5v9.056a3.375,3.375,0,0,0,3.381,3.381h12.8a3.375,3.375,0,0,0,3.381-3.381v-9.056a4.56,4.56,0,0,0,1.569-3.5v-.6a9.656,9.656,0,0,1,3.14-7,20.835,20.835,0,0,0,6.279-14.853A20.83,20.83,0,0,0-126.012-116.14ZM-130.6-68.683h-2.415a1.115,1.115,0,0,0-1.207,1.087,1.211,1.211,0,0,0,1.207,1.208h2.415v2.052a1.081,1.081,0,0,1-1.086,1.087h-12.8a1.082,1.082,0,0,1-1.086-1.087v-2.052h7.849a1.3,1.3,0,0,0,1.207-1.208,1.191,1.191,0,0,0-1.207-1.087h-7.849v-3.623a1.741,1.741,0,0,0,.845.242h13.283a1.737,1.737,0,0,0,.845-.242Z"/>
    <path id="Path_325" data-name="Path 325" class="cls-1" d="M-145.816-101.287a.957.957,0,0,0,.966.6h3.865l-2.778,11.23a1.015,1.015,0,0,0,.483,1.328c.242,0,.362.121.6.121a1.308,1.308,0,0,0,.845-.362l15.456-18.234a1.11,1.11,0,0,0,.121-1.208,1.075,1.075,0,0,0-.965-.6h-4.227l1.208-9.9a1.116,1.116,0,0,0-.725-1.207,1,1,0,0,0-1.329.362L-145.7-102.5A1.112,1.112,0,0,0-145.816-101.287Zm12.8-13.4-.845,7.245a.747.747,0,0,0,.241.845,1.1,1.1,0,0,0,.846.362h3.019l-10.627,12.68,1.932-7.971a1.287,1.287,0,0,0-.12-.966,1.5,1.5,0,0,0-.966-.483h-2.9Z"/>
    <path id="Path_326" data-name="Path 326" class="cls-1" d="M-143.182-81.721a1.134,1.134,0,0,0-1.133,1.134,1.134,1.134,0,0,0,1.133,1.134h10.107a1.134,1.134,0,0,0,1.134-1.134,1.134,1.134,0,0,0-1.134-1.134Z"/>
  </g>
</svg>
