<svg xmlns="http://www.w3.org/2000/svg" width="39.608" height="64" viewBox="0 0 39.608 64">
  <defs>
    <style>
      .cls-1 {
        fill: #fff;
      }
    </style>
  </defs>
  <g id="Group_479" data-name="Group 479" transform="translate(238.918 122.479)">
    <path id="Path_327" data-name="Path 327" class="cls-1" d="M-204.985-122.479h-28.257a5.669,5.669,0,0,0-5.676,5.675v52.65a5.669,5.669,0,0,0,5.676,5.675h28.257a5.669,5.669,0,0,0,5.675-5.675V-116.8A5.669,5.669,0,0,0-204.985-122.479Zm3.38,58.325a3.481,3.481,0,0,1-3.38,3.5h-28.257a3.481,3.481,0,0,1-3.381-3.5v-2.778H-201.6Zm0-5.073h-35.018V-111.37H-201.6Zm0-44.437h-35.018v-3.14a3.455,3.455,0,0,1,3.381-3.381h28.257a3.456,3.456,0,0,1,3.38,3.381Z"/>
    <path id="Path_328" data-name="Path 328" class="cls-1" d="M-214.767-117.891h-8.694a1.115,1.115,0,0,0-1.208,1.087,1.115,1.115,0,0,0,1.208,1.087h8.694a1.192,1.192,0,0,0,1.208-1.087A1.192,1.192,0,0,0-214.767-117.891Z"/>
    <path id="Path_329" data-name="Path 329" class="cls-1" d="M-209.091-117.891h-1.691a1.082,1.082,0,0,0-1.087,1.087,1.082,1.082,0,0,0,1.087,1.087h1.691a1.115,1.115,0,0,0,1.207-1.087A1.115,1.115,0,0,0-209.091-117.891Z"/>
    <path id="Path_330" data-name="Path 330" class="cls-1" d="M-231.793-62.464h4.83a1.081,1.081,0,0,0,1.086-1.087,1.191,1.191,0,0,0-1.086-1.208h-4.83a1.192,1.192,0,0,0-1.087,1.208A1.082,1.082,0,0,0-231.793-62.464Z"/>
    <path id="Path_331" data-name="Path 331" class="cls-1" d="M-211.265-62.464h4.831a1.082,1.082,0,0,0,1.086-1.087,1.192,1.192,0,0,0-1.086-1.208h-4.831a1.3,1.3,0,0,0-1.207,1.208A1.191,1.191,0,0,0-211.265-62.464Z"/>
    <path id="Path_332" data-name="Path 332" class="cls-1" d="M-219.125-79.809a9.559,9.559,0,0,0,9.549-9.547,9.6,9.6,0,0,0-3.89-7.693,1.132,1.132,0,0,0-1.585.241,1.134,1.134,0,0,0,.239,1.585,7.311,7.311,0,0,1,2.968,5.867,7.288,7.288,0,0,1-7.281,7.279,7.288,7.288,0,0,1-7.281-7.279,7.311,7.311,0,0,1,2.968-5.867,1.136,1.136,0,0,0,.24-1.585,1.133,1.133,0,0,0-1.586-.241,9.594,9.594,0,0,0-3.889,7.693A9.558,9.558,0,0,0-219.125-79.809Z"/>
    <path id="Path_333" data-name="Path 333" class="cls-1" d="M-219.125-92.431a1.134,1.134,0,0,0,1.134-1.134V-98.85a1.133,1.133,0,0,0-1.134-1.132,1.133,1.133,0,0,0-1.134,1.132v5.285A1.134,1.134,0,0,0-219.125-92.431Z"/>
  </g>
</svg>
