<svg xmlns="http://www.w3.org/2000/svg" width="66.566" height="54.581" viewBox="0 0 66.566 54.581">
  <defs>
    <style>
      .cls-1 {
        fill: #fff;
      }
    </style>
  </defs>
  <path id="Path_340" data-name="Path 340" class="cls-1" d="M5.973-77.2-26.51-109.679a.946.946,0,0,0-1.328,0l-8.936,8.815a1.1,1.1,0,0,0,0,1.449l.966.966-3.019,3.019a4.811,4.811,0,0,0,0,6.883v.12L-43.9-83.355a.949.949,0,0,0,0,1.329l-8.815-1.208V-116.8a.952.952,0,0,0-.966-.966h-5.675a.965.965,0,0,0-.966.966v52.649a.965.965,0,0,0,.966.966h5.675a.952.952,0,0,0,.966-.966V-76.592l16.3,2.052.724.846a1.1,1.1,0,0,0,1.45,0l5.072-5.193,6.4,6.4a4.813,4.813,0,0,0,6.884,0l3.018-3.019,1.208,1.208a11.3,11.3,0,0,0,16.06,0l1.57-1.57A.946.946,0,0,0,5.973-77.2ZM-54.646-65.12h-3.743v-50.718h3.743Zm27.411-42.506,6.521,6.4-7.607,7.487-5.434-5.434-.966-.966Zm-25.479,28.98v-2.535l11.11,1.449,2.9,2.9Zm17.751,2.778-6.883-6.762,4.468-4.468,6.883,6.883Zm17.751,1.932a2.918,2.918,0,0,1-4.227,0l-7-7-7.486-7.488-1.57-1.449a3.146,3.146,0,0,1,0-4.226l3.019-3.019,5.554,5.555,14.732,14.611ZM3.075-75.627a9.509,9.509,0,0,1-13.4-.12L-26.872-92.29l7.487-7.488L3.921-76.592Z" transform="translate(60.321 117.77)"/>
</svg>
